# xmcd
#
# Track frame offsets:
#	150
#	18159
#	31736
#	47755
#	64733
#	80660
#	94893
#	109117
#	123937
#	142085
#	159475
#	173336
#	190938
#	204954
#	222909
#	236891
#	250195
#	264379
#	283754
#
# Disc length: 3992 seconds
#
# Revision: 1
# Processed by: cddbd v1.5.2PL0 Copyright (c) Steve Scherf et al.
# Submitted via: audiograbber 1.83.01
#
DISCID=080f9613
DTITLE=Various Artist - Nu Country Traxx 017
DYEAR=2000
DGENRE=Country
TTITLE0=Carolyn Dawn Johnson - Georgia
TTITLE1=Don Rigsby - Empty Old Mailbox
TTITLE2=Shania Twain - I'm Holdin' On To Love (To Save My Life)
TTITLE3=John Michael Montgomery - The Little Girl
TTITLE4=Dixie Chicks - Without You
TTITLE5=Tracy Lawrence - Lonely
TTITLE6=Neal Coty - Legacy
TTITLE7=Mark Wills - Everything There Is To Know About You
TTITLE8=Jolie and The Wanted - I Would
TTITLE9=Eric Heatherly - Swimming In Champagne
TTITLE10=Bill Engvall - Now That's Awesome
TTITLE11=Kenny Chesney - I Lost It
TTITLE12=Rascal Flatts - This Everyday Love
TTITLE13=Sonya Isaacs - Barefoot In The Grass
TTITLE14=Keith Whitley - Sad Songs and Waltzes
TTITLE15=Dwight Yoakam - What Do You Know About Love
TTITLE16=The Gourds - El Paso
TTITLE17=Austin Lounge Lizards - Big Rio Grande River
TTITLE18=Mollie O'brien - River's Invitation
EXTD=
EXTT0=
EXTT1=
EXTT2=
EXTT3=
EXTT4=
EXTT5=
EXTT6=
EXTT7=
EXTT8=
EXTT9=
EXTT10=
EXTT11=
EXTT12=
EXTT13=
EXTT14=
EXTT15=
EXTT16=
EXTT17=
EXTT18=
PLAYORDER=
